<svg xmlns="http://www.w3.org/2000/svg" width="200" viewBox="0 0 810 810" height="200" version="1.0"><rect width="810" height="810" fill="#DDD" rx="100"/><path fill="#FF914D" d="M 164.894531 431.753906 L 112.5 420.613281 L 150.300781 246.808594 L 246.53125 300.5625 L 267.71875 197.3125 L 356.035156 259.691406 L 384.542969 159.808594 L 526.292969 254.183594 L 496.421875 298.675781 L 415.902344 245.152344 L 386.917969 347.085938 L 303.871094 288.308594 L 284.230469 383.011719 L 187.429688 328.980469 Z M 164.894531 431.753906"/><path fill="#5271FF" d="M 478.671875 483.199219 L 585.679688 238.246094 L 722.855469 397.859375 Z M 599.035156 326.929688 L 566.359375 401.710938 L 640.960938 375.628906 Z M 599.035156 326.929688"/><path fill="#008037" d="M 334.386719 639.230469 C 268.234375 639.230469 214.242188 585.238281 214.242188 518.90625 C 214.242188 452.757812 268.234375 398.761719 334.386719 398.761719 C 400.714844 398.761719 454.53125 452.757812 454.53125 518.90625 C 454.710938 585.238281 400.714844 639.230469 334.386719 639.230469 Z M 334.386719 464.914062 C 304.707031 464.914062 280.394531 489.230469 280.394531 518.90625 C 280.394531 548.585938 304.707031 572.902344 334.386719 572.902344 C 364.066406 572.902344 388.378906 548.585938 388.378906 518.90625 C 388.378906 489.230469 364.242188 464.914062 334.386719 464.914062 Z M 334.386719 464.914062"/></svg>