<svg width="40" height="40" viewBox="0 0 40 40" fill="none" xmlns="http://www.w3.org/2000/svg">
    <defs>
        <linearGradient id="paint0_linear" x1="13.1914" y1="26.3977" x2="18.8001" y2="34.066">
            <stop offset="0.198075" stop-color="#613AB5"/>
            <stop offset="1" stop-color="#D11E8E"/>
        </linearGradient>
        <linearGradient id="paint1_linear" x1="18.4039" y1="22.5852" x2="24.0126" y2="30.2534">
            <stop offset="0.198075" stop-color="#613AB5"/>
            <stop offset="1" stop-color="#D11E8E"/>
        </linearGradient>
        <linearGradient id="paint2_linear" x1="26.8085" y1="13.6023" x2="21.1997" y2="5.93406">
            <stop offset="0.801925" stop-color="#613AB5"/>
            <stop offset="1" stop-color="#613AB5"/>
        </linearGradient>
        <linearGradient id="paint3_linear" x1="21.5961" y1="17.4148" x2="15.9873" y2="9.74649">
            <stop offset="0.801925" stop-color="#613AB5"/>
            <stop offset="1" stop-color="#613AB5"/>
        </linearGradient>
    </defs>
    <path d="M24.2023 36L16.1882 35.9762L18.5992 28.3276L24.2023 36Z" fill="#D11E8E"/>
    <path d="M16.1864 35.9736L8.17236 35.9498L10.5833 28.3012L16.1864 35.9736Z" fill="#9F20A8"/>
    <path d="M21.01 20.6789L29.0241 20.7027L26.6131 28.3513L21.01 20.6789Z" fill="#9F20A8"/>
    <path d="M2.57141 28.28L10.5855 28.3038L8.17453 35.9524L2.57141 28.28Z" fill="#613AB5"/>
    <path d="M29.0239 20.7026L21.0099 20.6788L23.4208 13.0302L29.0239 20.7026Z" fill="#613AB5"/>
    <path d="M18.5992 28.3276L26.6133 28.3514L24.2024 36L18.5992 28.3276Z" fill="#D11E8E"/>
    <path d="M16.1885 35.9761L18.5991 28.3278L10.5851 28.304L16.1885 35.9761Z" fill="url(#paint0_linear)"/>
    <path d="M18.5992 28.3278L26.6133 28.3513L21.0099 20.6789L18.5992 28.3278Z" fill="url(#paint1_linear)"/>
    <path d="M15.7977 3.99995L23.8118 4.0238L21.4008 11.6724L15.7977 3.99995Z" fill="#613AB5"/>
    <path d="M23.8135 4.02656L31.8275 4.0504L29.4166 11.699L23.8135 4.02656Z" fill="#9F20A8"/>
    <path d="M18.9899 19.321L10.9758 19.2972L13.3868 11.6486L18.9899 19.321Z" fill="#9F20A8"/>
    <path d="M37.4286 11.72L29.4146 11.6961L31.8255 4.04755L37.4286 11.72Z" fill="#D11E8E"/>
    <path d="M10.9761 19.2973L18.9901 19.3211L16.5792 26.9697L10.9761 19.2973Z" fill="#D11E8E"/>
    <path d="M21.4008 11.6724L13.3867 11.6485L15.7977 3.99994L21.4008 11.6724Z" fill="#613AB5"/>
    <path d="M21.4008 11.6725L29.4148 11.696L23.8114 4.02363L21.4008 11.6725Z" fill="url(#paint2_linear)"/>
    <path d="M18.9898 19.321L21.4007 11.6725L13.387 11.6486L18.9898 19.321Z" fill="url(#paint3_linear)"/>
</svg>
